<?xml version="1.0" encoding="utf-8"?>
<!-- Generator: Adobe Illustrator 24.3.0, SVG Export Plug-In . SVG Version: 6.00 Build 0)  -->
<svg version="1.1" id="Layer_1" xmlns="http://www.w3.org/2000/svg" xmlns:xlink="http://www.w3.org/1999/xlink" x="0px" y="0px"
	 viewBox="0 0 30 30" style="enable-background:new 0 0 30 30;" xml:space="preserve">
<style type="text/css">
	.st0{fill:none;stroke:#25325A;stroke-width:2;stroke-linecap:round;stroke-linejoin:round;stroke-miterlimit:10;}
	.st1{fill:none;stroke:#25325A;stroke-width:2;stroke-linejoin:round;stroke-miterlimit:10;}
	.st2{fill:#25325A;}
</style>
<path class="st0" d="M7,22V4h18v18c0,2.2-1.8,4-4,4"/>
<path class="st0" d="M17,22L17,22H4l0,0c0,2.2,1.8,4,4,4h13C18.8,26,17,24.2,17,22z"/>
<line class="st1" x1="15" y1="13" x2="21" y2="13"/>
<line class="st1" x1="11" y1="13" x2="13" y2="13"/>
<line class="st1" x1="15" y1="17" x2="21" y2="17"/>
<line class="st1" x1="11" y1="17" x2="13" y2="17"/>
<line class="st1" x1="15" y1="9" x2="21" y2="9"/>
<line class="st1" x1="11" y1="9" x2="13" y2="9"/>
<path class="st2" d="M17,22L17,22H4l0,0c0,2.2,1.8,4,4,4h13C18.8,26,17,24.2,17,22z"/>
</svg>
